<svg xmlns="http://www.w3.org/2000/svg" viewBox="0 0 1200 750" font-family="'IBM Plex Mono', ui-monospace, Menlo, monospace">
  <defs>
    <pattern id="d-dots" width="28" height="28" patternUnits="userSpaceOnUse">
      <circle cx="1.5" cy="1.5" r="1.5" fill="#2a241e"/>
    </pattern>
  </defs>

  <rect width="1200" height="750" fill="#161310"/>
  <rect width="1200" height="750" fill="url(#d-dots)"/>
  <rect x="28" y="28" width="1144" height="694" fill="none" stroke="#332c24" stroke-width="1.5"/>

  <!-- brush strokes -->
  <path d="M 200 520 C 330 300, 430 300, 520 430 S 700 580, 800 430 S 950 260, 1010 330"
        fill="none" stroke="#d98ba3" stroke-width="22" stroke-linecap="round"/>
  <path d="M 240 590 C 400 480, 620 640, 780 540 S 960 470, 1000 510"
        fill="none" stroke="#6b4450" stroke-width="10" stroke-linecap="round"/>
  <path d="M 300 250 C 420 190, 560 230, 640 200"
        fill="none" stroke="#ede8e0" stroke-width="5" stroke-linecap="round" stroke-dasharray="1 16"/>

  <!-- pen cursor + ink dots -->
  <circle cx="1010" cy="330" r="12" fill="none" stroke="#ede8e0" stroke-width="2.5"/>
  <circle cx="1010" cy="330" r="4" fill="#ede8e0"/>
  <g fill="#d98ba3">
    <circle cx="700" cy="200" r="6"/>
    <circle cx="850" cy="620" r="8"/>
    <circle cx="180" cy="350" r="5"/>
  </g>

  <text x="64" y="86" font-size="22" letter-spacing="6" fill="#8d8579">DRAWING APP</text>
  <text x="64" y="690" font-size="15" letter-spacing="3" fill="#5c544a">ANDROID / KOTLIN — JETPACK COMPOSE + FIREBASE</text>
  <text x="1136" y="92" font-size="56" text-anchor="end" font-style="italic" fill="#332c24">06</text>
</svg>
