<svg xmlns="http://www.w3.org/2000/svg" viewBox="0 0 1200 750" font-family="'IBM Plex Mono', ui-monospace, Menlo, monospace">
  <defs>
    <pattern id="g-dots" width="28" height="28" patternUnits="userSpaceOnUse">
      <circle cx="1.5" cy="1.5" r="1.5" fill="#2a241e"/>
    </pattern>
  </defs>

  <rect width="1200" height="750" fill="#161310"/>
  <rect width="1200" height="750" fill="url(#g-dots)"/>
  <rect x="28" y="28" width="1144" height="694" fill="none" stroke="#332c24" stroke-width="1.5"/>

  <!-- waveform -->
  <g stroke="#e0a458" stroke-width="14" stroke-linecap="round">
    <line x1="200" y1="370" x2="200" y2="420"/>
    <line x1="244" y1="340" x2="244" y2="450"/>
    <line x1="288" y1="300" x2="288" y2="490"/>
    <line x1="332" y1="355" x2="332" y2="435"/>
    <line x1="376" y1="250" x2="376" y2="540"/>
    <line x1="420" y1="320" x2="420" y2="470"/>
    <line x1="464" y1="215" x2="464" y2="575"/>
    <line x1="508" y1="295" x2="508" y2="495"/>
    <line x1="552" y1="345" x2="552" y2="445"/>
  </g>
  <g stroke="#6b5740" stroke-width="14" stroke-linecap="round">
    <line x1="640" y1="330" x2="640" y2="460"/>
    <line x1="684" y1="270" x2="684" y2="520"/>
    <line x1="728" y1="350" x2="728" y2="440"/>
    <line x1="772" y1="305" x2="772" y2="485"/>
    <line x1="816" y1="370" x2="816" y2="420"/>
    <line x1="860" y1="330" x2="860" y2="460"/>
    <line x1="904" y1="385" x2="904" y2="405"/>
    <line x1="948" y1="355" x2="948" y2="435"/>
    <line x1="992" y1="380" x2="992" y2="410"/>
  </g>

  <!-- playhead -->
  <line x1="596" y1="150" x2="596" y2="640" stroke="#ede8e0" stroke-width="2"/>
  <path d="M 584 150 H 608 L 596 170 Z" fill="#ede8e0"/>

  <text x="64" y="86" font-size="22" letter-spacing="6" fill="#8d8579">GROOVEKIT</text>
  <text x="64" y="690" font-size="15" letter-spacing="3" fill="#5c544a">EDUCATIONAL DAW IN C++ / JUCE · "COOLEST PROJECT" AWARD</text>
  <text x="1136" y="92" font-size="56" text-anchor="end" font-style="italic" fill="#332c24">04</text>
</svg>
