<svg xmlns="http://www.w3.org/2000/svg" viewBox="0 0 1200 750" font-family="'IBM Plex Mono', ui-monospace, Menlo, monospace">
  <defs>
    <pattern id="mc-dots" width="28" height="28" patternUnits="userSpaceOnUse">
      <circle cx="1.5" cy="1.5" r="1.5" fill="#2a241e"/>
    </pattern>
    <linearGradient id="mc-sweep" x1="0" y1="0" x2="1" y2="0">
      <stop offset="0" stop-color="#5fb3a1" stop-opacity="0"/>
      <stop offset="1" stop-color="#5fb3a1" stop-opacity="0.35"/>
    </linearGradient>
  </defs>

  <rect width="1200" height="750" fill="#161310"/>
  <rect width="1200" height="750" fill="url(#mc-dots)"/>
  <rect x="28" y="28" width="1144" height="694" fill="none" stroke="#332c24" stroke-width="1.5"/>

  <!-- radar rings -->
  <g fill="none" stroke="#3a4a44" stroke-width="1.5">
    <circle cx="600" cy="395" r="80"/>
    <circle cx="600" cy="395" r="150"/>
    <circle cx="600" cy="395" r="220"/>
  </g>
  <circle cx="600" cy="395" r="220" fill="none" stroke="#5fb3a1" stroke-width="2" stroke-dasharray="4 10"/>

  <!-- crosshair -->
  <g stroke="#3a4a44" stroke-width="1.5">
    <line x1="600" y1="145" x2="600" y2="645"/>
    <line x1="350" y1="395" x2="850" y2="395"/>
  </g>

  <!-- sweep -->
  <path d="M 600 395 L 820 395 A 220 220 0 0 0 755 240 Z" fill="url(#mc-sweep)"/>
  <line x1="600" y1="395" x2="820" y2="395" stroke="#5fb3a1" stroke-width="2.5"/>

  <!-- agent blips -->
  <g fill="#5fb3a1">
    <circle cx="700" cy="320" r="7"/>
    <circle cx="528" cy="470" r="5"/>
    <circle cx="660" cy="500" r="5"/>
  </g>
  <circle cx="700" cy="320" r="16" fill="none" stroke="#5fb3a1" stroke-width="1.5" opacity="0.5"/>
  <circle cx="478" cy="300" r="5" fill="#ede8e0"/>
  <circle cx="600" cy="395" r="6" fill="#ede8e0"/>

  <text x="64" y="86" font-size="22" letter-spacing="6" fill="#8d8579">MISSION CONTROL</text>
  <text x="64" y="690" font-size="15" letter-spacing="3" fill="#5c544a">AGENT FLEET OPS DASHBOARD · NEXT.JS / SQLITE</text>
  <text x="1136" y="92" font-size="56" text-anchor="end" font-style="italic" fill="#332c24">07</text>
</svg>
